PathFileType	4	(X/Y/Z)	C:/Users/beibeiliu/ov580/test_trc/User3\sequence.20_training_dense_left.trc
DataRate	CameraRate	NumFrames	NumMarkers	Units	OrigDataRate	OrigDataStartFrame	OrigNumFrames
120	120	22	19	mm	120	217	346
Frame#	Time	ThumbCMC			ThumbMCP			ThumbIP			ThumbTip			IndexMCP			IndexPIP			IndexTip			MiddleMCP			MiddlePIP			MiddleTip			RingMCP			RingPIP			RingTip			PinkyMCP			PinkyPIP			PinkyTip			BackHand1			BackHand2			BackHand3	
		X0	Y0	Z0	X1	Y1	Z1	X2	Y2	Z2	X3	Y3	Z3	X4	Y4	Z4	X5	Y5	Z5	X6	Y6	Z6	X7	Y7	Z7	X8	Y8	Z8	X9	Y9	Z9	X10	Y10	Z10	X11	Y11	Z11	X12	Y12	Z12	X13	Y13	Z13	X14	Y14	Z14	X15	Y15	Z15	X16	Y16	Z16	X17	Y17	Z17	X18	Y18	Z18	
216	1.8	-246.665	28.5614	47.2644	-223.468	57.4117	36.3535	-195.736	65.0881	31.9381	-174.204	46.0447	36.3181	-191.6	37.0364	-7.94827	-171.218	57.893	10.2085	-190.888	52.0811	34.0298	-178.395	24.2838	-6.2796	-158.382	45.6833	13.0564	-183.585	31.3951	40.7552	-169.765	7.52716	7.46413	-151.548	25.2105	26.2174	-176.48	27.5534	49.1207	-165.297	-4.4776	20.5287	-152.394	13.367	36.0315	-175.304	15.7371	58.9839	-216.378	-21.5181	21.117	-232.804	-33.3371	43.9806	-241.675	-2.17462	24.7817	
217	1.80833	-257.497	31.7175	40.5057	-239.505	58.7821	30.8467	-213.956	68.6575	26.6777	-190.134	54.499	30.4645	-203.93	41.6685	-12.694	-186.197	63.2912	0.168865	-207.918	57.9883	27.0255	-185.368	30.8771	-11.4307	-172.356	53.006	6.1666	-195.731	40.0412	36.243	-176.503	16.4133	2.43001	-161.312	33.7509	19.1835	-187.834	36.2244	43.9043	-174.047	1.57579	19.3976	-159.984	21.6542	33.402	-185.172	20.5143	54.1741	-221.412	-19.8818	19.7185	-237.382	-31.5526	45.0238	-248.808	-3.61699	23.3818	
218	1.81667	-266.495	29.5438	38.1806	-254.57	57.749	27.4358	-226.522	69.1012	17.5625	-200.535	58.0433	23.2718	-217.139	39.7997	-17.3078	-200.118	64.6475	-7.70193	-220.676	59.5192	20.2545	-196.77	29.9819	-17.3399	-183.387	53.4951	-3.01382	-206.793	42.3886	29.1973	-188.304	15.7079	-3.04073	-173.697	41.6955	9.57142	-191.358	40.6963	35.5517	-181.906	3.00221	14.1568	-173.49	29.8665	23.0209	-192.836	26.8874	47.7702	-227.953	-19.2149	19.1645	-241.106	-32.536	42.3461	-258.367	-6.85576	22.9212	
219	1.825	-274.729	28.2175	36.977	-265.129	58.302	22.7345	-235.122	69.2946	8.5436	-212.919	58.6842	16.5352	-230.602	38.1985	-23.8013	-211.773	64.1896	-15.7999	-232.625	56.9483	13.8344	-211.507	28.0031	-23.0099	-193.693	52.5803	-13.153	-213.21	44.2949	21.1486	-197.47	18.1068	-12.9391	-185.223	41.0675	-4.21535	-201.151	43.1381	27.784	-194.866	6.91523	5.37075	-179.726	28.3685	12.6851	-197.709	29.7233	36.3761	-234.484	-17.9848	16.9069	-249.991	-30.8515	39.2848	-264.421	-5.59715	19.6252	
220	1.83333	-284.422	28.9953	35.5482	-273.999	57.3641	18.4774	-248.521	71.4873	4.05401	-221.759	55.6102	8.34825	-242.123	36.0476	-28.9194	-226.675	64.1619	-22.0134	-241.743	59.9218	6.10832	-227.535	26.3684	-30.3972	-209.405	54.4183	-24.1364	-226.411	45.8711	13.3688	-209.8	15.9435	-21.6075	-194.434	38.0608	-12.7258	-208.806	43.0528	16.5953	-200.944	6.17139	-5.433	-190.76	29.0237	1.28186	-208.321	29.4848	28.4399	-240.414	-19.2967	13.4105	-255.984	-26.8735	37.1954	-275.011	-4.46458	17.3034	
221	1.84167	-292.826	30.2701	34.8325	-281.65	58.2649	14.0428	-256.084	69.4448	-3.95184	-229.295	55.8905	-1.14332	-255.864	32.9594	-33.1427	-239.94	61.1399	-31.4852	-252.486	57.3571	0.706272	-242.045	24.1182	-38.8344	-221.496	50.4791	-32.9415	-234.973	44.359	5.815	-227.134	14.5529	-28.2537	-208.968	38.183	-22.8183	-220.336	40.7759	10.0141	-217.059	6.72121	-12.9964	-203.034	28.7421	-8.18399	-213.87	27.0933	21.8616	-252.095	-17.5983	9.73228	-262.206	-31.2785	40.7954	-285.268	-4.18748	16.3652	
222	1.85	-297.08	30.839	35.1563	-288.564	58.2591	12.2423	-265.99	67.9942	-9.50067	-238.188	52.519	-9.11553	-274.035	31.845	-36.1482	-257.384	60.6903	-37.8165	-263.57	59.4704	-4.29843	-258.505	20.021	-41.2209	-239.016	49.5602	-40.837	-245.138	43.5531	-1.24859	-242.542	12.8082	-35.5774	-223.528	35.6736	-33.7309	-228.606	39.83	-0.0256952	-230.106	2.09395	-15.8983	-215.591	27.9376	-16.6356	-222.668	25.8791	13.7668	-260.711	-19.831	8.4566	-268.925	-26.6495	38.8948	-290.926	-6.23942	22.4734	
223	1.85833	-302.751	34.8077	37.9528	-295.001	60.344	18.3547	-275.922	65.9266	-6.5591	-249.909	55.4607	-15.6799	-288.381	33.308	-36.5911	-269.004	59.1995	-39.144	-270.879	57.071	-4.17239	-271.646	19.2506	-44.355	-256.393	47.6849	-48.2899	-256.904	46.2317	-5.40939	-260.263	10.6374	-37.8478	-239.96	35.078	-39.8017	-240.838	41.3211	-9.94751	-246.273	2.99656	-26.1707	-233.561	26.0479	-27.425	-232.208	26.5873	4.0781	-276.013	-18.505	8.28518	-273.623	-28.5863	36.5943	-298.327	-3.11769	24.7565	
224	1.86667	-302.573	39.3719	40.7356	-295.78	61.6945	16.4488	-281.165	74.9184	-7.77749	-257.73	57.5501	-19.2478	-301.447	37.9008	-34.5268	-279.826	62.7542	-36.7351	-280.315	59.9511	-2.99003	-287.858	22.483	-45.3568	-267.033	47.4975	-48.5138	-266.107	48.0242	-7.94128	-274.605	9.44236	-36.4052	-253.089	32.9925	-45.5848	-250.551	41.7858	-14.7289	-259.618	-0.7661	-29.75	-244.342	21.9833	-35.6601	-241.306	28.1354	-3.15107	-283.836	-17.6279	11.3179	-283.023	-24.9985	40.7156	-309.266	3.15022	27.8903	
225	1.875	-304.012	46.451	46.1327	-297.987	71.9971	22.6032	-284.781	76.0066	-1.83333	-264.423	58.7328	-21.5345	-310.059	44.5457	-31.6254	-290.028	69.4324	-32.4533	-280.032	62.8375	-3.91998	-304.517	27.1319	-37.827	-280.558	48.6359	-49.3933	-271.671	50.0025	-11.0424	-288.511	13.0769	-40.2469	-271.199	36.9539	-48.0735	-258.132	42.3706	-19.1736	-276.051	3.26716	-28.879	-260.64	21.8822	-38.9255	-248.284	29.216	-9.8882	-295.154	-13.4371	14.17	-287.754	-18.8504	44.5003	-313.338	9.45606	34.3939	
226	1.88333	-301.027	52.0846	49.9663	-292.116	72.8371	25.9723	-282.521	84.6874	-4.08789	-268.216	62.0217	-21.0106	-318.045	53.1749	-21.7277	-293.806	74.5287	-28.9034	-281.882	68.8866	0.413254	-314.295	37.0136	-34.3004	-288.969	57.4224	-44.0568	-276.253	52.628	-7.30272	-303.829	22.2136	-35.1326	-281.944	37.8302	-47.5915	-266.864	45.3693	-17.381	-288.745	4.37604	-29.8594	-272.039	22.8445	-41.3628	-259.565	32.0507	-17.2307	-302.72	-8.60007	13.2555	-296.589	-13.8129	43.9429	-315.49	13.835	40.9077	
227	1.89167	-293.766	52.7235	55.313	-286.342	76.3446	31.5358	-277.861	84.94	2.8508	-269.529	67.0521	-17.3085	-321.309	63.0895	-12.5786	-297.272	83.0684	-24.1768	-281.09	72.5985	6.02606	-321.655	49.3173	-26.414	-294.787	67.0448	-38.5775	-276.893	56.7123	-4.25186	-313.192	28.8484	-32.5878	-290.922	46.9858	-44.1287	-270.805	46.3289	-15.6087	-300.044	11.472	-22.156	-286.682	26.1843	-40.915	-262.787	31.5157	-20.3638	-315.261	1.92993	19.2245	-300.819	-10.4358	45.7261	-321.165	24.81	46.4621	
228	1.9	-287.496	56.3404	61.0121	-276.383	78.1538	38.7639	-270.063	88.1444	9.43914	-266.696	75.6446	-18.0722	-318.438	74.9543	-6.8168	-293.197	88.6902	-17.8007	-275.267	76.4599	11.3144	-323.738	61.2057	-19.0644	-296.668	72.7587	-32.9408	-277.386	58.6202	-4.06649	-318.899	36.9563	-22.1339	-297.328	55.206	-38.3729	-274.889	51.173	-17.3756	-309.763	18.676	-19.3442	-291.899	36.1258	-36.5889	-272.828	35.5064	-13.9767	-319.672	8.56427	24.9269	-308.882	-4.04061	50.5723	-317.836	32.1324	55.3599	
229	1.90833	-278.654	55.7747	63.3302	-265.197	77.2827	42.1531	-261.787	88.7416	13.2872	-266.94	76.3336	-15.5835	-314.096	88.2805	7.46252	-287.175	95.7519	-10.152	-269.223	78.2612	10.6978	-323.063	73.2006	-4.95905	-294.222	82.1263	-25.0739	-276.588	60.2132	-1.30823	-324.593	52.7122	-14.7434	-300.767	59.8824	-32.8545	-276.61	48.8497	-9.9857	-319.266	33.7979	-15.0399	-303.072	43.3549	-31.0905	-275.374	34.6623	-13.8079	-322.722	20.7189	34.0522	-313.056	0.11875	54.954	-315.465	38.6095	58.4667	
230	1.91667	-267.747	53.1272	67.3285	-258.052	73.9279	40.793	-254.113	86.8181	14.9525	-265.313	77.291	-10.5266	-305.23	94.0162	18.2571	-278.873	95.7804	-4.40194	-263.575	72.2044	14.3297	-320.404	81.1092	3.33625	-293.081	87.8148	-17.8115	-274.501	59.6911	7.39984	-322.226	67.2036	-0.918783	-304.987	67.2928	-25.5164	-278.175	53.8918	-8.71289	-324.121	42.5516	-4.65137	-302.256	51.3041	-22.4842	-281.285	34.4115	-7.0419	-327.019	31.7399	42.8607	-314.438	12.6915	62.576	-308.359	44.1971	69.1428	
231	1.925	-259.783	47.4221	66.4759	-244.759	69.0107	42.718	-245.326	81.9005	16.4344	-257.94	77.7993	-8.31656	-290.662	98.5832	24.6631	-270.517	96.0794	0.733806	-260.978	64.0912	17.326	-307.69	92.5067	14.1084	-285.982	87.814	-10.5512	-272.402	56.3579	9.78496	-318.294	74.4713	7.24092	-303.137	70.225	-17.6461	-279.64	50.1714	-4.17071	-321.56	51.0725	7.19291	-304.456	54.2968	-14.8402	-285.325	34.5176	-6.05698	-322.56	39.6551	54.3886	-314.477	15.4713	70.5706	-297.661	46.4401	75.9949	
232	1.93333	-251.491	39.2794	66.5774	-241.406	56.2936	41.2433	-236.301	72.2696	16.7687	-250.204	71.9291	-5.54239	-279.841	96.0159	26.4202	-260.893	91.0458	2.00624	-253.462	62.4607	16.5361	-301.23	92.1287	17.2499	-281.034	87.3229	-8.51153	-269.932	55.1211	6.24384	-314.03	75.6885	10.0771	-296.512	72.0549	-12.3702	-278.005	45.3293	-0.881698	-317.439	57.0241	9.23512	-301.471	49.7111	-12.2553	-284.389	27.9426	3.07005	-314.546	40.3058	61.5318	-311.152	15.7803	75.1867	-287.524	42.3082	81.5179	
233	1.94167	-246.703	27.9301	66.7282	-234.655	45.9764	41.0061	-228.021	61.9831	15.6235	-250.029	67.3471	-9.21426	-270.041	89.5505	27.998	-254.387	82.4046	-0.79191	-251.12	52.9673	15.7591	-291.754	87.7195	21.0628	-278.764	85.486	-8.28079	-267.853	48.0431	9.2593	-304.534	72.9375	16.9798	-294.748	66.8347	-12.8382	-273.298	40.0796	1.49539	-313.587	54.0633	11.0807	-295.424	46.2731	-10.1851	-285.461	23.8653	2.48684	-314.026	39.9445	61.0919	-308.557	14.8411	77.378	-282.806	42.904	78.8069	
234	1.95	-242.443	25.9301	63.3197	-228.985	37.377	38.0568	-224.164	55.5301	11.7918	-242.81	56.7176	-8.39213	-261.588	85.4789	22.4095	-246.84	72.2069	-3.27122	-243.797	46.0595	15.653	-283.824	86.4264	15.3177	-268.626	75.8433	-11.3191	-262.188	44.066	7.27824	-298.434	72.5502	8.73728	-285.744	63.1018	-14.0846	-271.896	33.8081	0.436435	-307.016	51.3542	9.55005	-293.426	42.3499	-13.6498	-279.258	18.3971	0.526447	-306.418	40.9682	59.6388	-303.434	16.0597	77.3769	-277.264	38.6689	78.6721	
235	1.95833	-239.407	15.9573	62.5755	-224.083	31.2136	33.6956	-217.342	43.9326	7.13739	-239.768	48.0116	-13.8596	-256.841	77.5591	16.8367	-240.323	66.7629	-7.78203	-238.621	37.2812	14.5249	-277.823	79.6813	7.49087	-258.93	67.6399	-15.5651	-257.462	36.2383	4.96913	-292.527	66.2206	3.48297	-277.452	54.4799	-18.8001	-267.673	27.5592	-4.30145	-304.502	47.6702	2.47598	-286.996	37.4842	-17.3894	-276.257	15.3	-6.52101	-302.646	35.7837	54.4215	-304.059	10.1317	72.568	-270.746	38.052	75.4205	
236	1.96667	-233.488	11.9486	58.9459	-218.401	23.0982	29.3587	-213.641	36.4366	0.874561	-234.288	39.0514	-21.1439	-246.405	72.2723	10.292	-234.399	57.4351	-12.2841	-235.94	28.6838	9.98224	-269.455	71.2752	6.09679	-254.318	57.5713	-21.3838	-251.372	29.3668	1.16417	-284.764	59.4061	1.16984	-271.727	43.8136	-24.5449	-263.022	19.5497	-4.57443	-300.247	41.9356	-1.77215	-280.211	32.8798	-23.2035	-268.766	9.46539	-9.61375	-296.107	32.99	51.7498	-301.705	10.4389	68.3512	-269.267	32.2019	69.777	
237	1.975	-236.002	9.47882	53.0967	-216.781	19.0188	24.669	-214.047	26.652	-1.2552	-229.806	28.9595	-24.9702	-242.334	65.5469	4.31341	-227.488	52.0089	-16.6685	-230.088	23.1638	1.06736	-261.78	67.0624	-1.65686	-246.337	52.2184	-26.0122	-248.997	20.6175	-1.65534	-280.69	53.9414	-4.91878	-266.81	41.5071	-29.1705	-256.694	15.3864	-9.93944	-290.533	39.2106	-4.98661	-280.549	30.8239	-27.2111	-268.459	2.35051	-13.5407	-295.022	28.7489	44.4907	-296.887	10.0939	64.7535	-268.273	27.8342	66.3313	
